<svg width="14" height="15" viewBox="0 0 14 15" fill="none" xmlns="http://www.w3.org/2000/svg">
<path d="M12.2383 9.65674V8.14502H10.7617V9.65674H12.2383ZM12.2383 12.645V11.1685H10.7617V12.645H12.2383ZM9.25 3.64502V2.16846H7.73828V3.64502H9.25ZM9.25 6.66846V5.15674H7.73828V6.66846H9.25ZM9.25 9.65674V8.14502H7.73828V9.65674H9.25ZM6.26172 3.64502V2.16846H4.75V3.64502H6.26172ZM6.26172 6.66846V5.15674H4.75V6.66846H6.26172ZM6.26172 9.65674V8.14502H4.75V9.65674H6.26172ZM3.23828 6.66846V5.15674H1.76172V6.66846H3.23828ZM3.23828 9.65674V8.14502H1.76172V9.65674H3.23828ZM3.23828 12.645V11.1685H1.76172V12.645H3.23828ZM10.7617 6.66846H13.75V14.1567H7.73828V11.1685H6.26172V14.1567H0.25V3.64502H3.23828V0.656738H10.7617V6.66846Z" fill="#1C1B18"/>
</svg>
