<svg width="14" height="16" viewBox="0 0 14 16" fill="none" xmlns="http://www.w3.org/2000/svg">
<path d="M7 0.918457C7.79688 0.918457 8.54688 1.05908 9.25 1.34033C9.97656 1.62158 10.6211 2.03174 11.1836 2.5708C11.7461 3.10986 12.1914 3.76611 12.5195 4.53955C12.8477 5.28955 13.0117 6.1333 13.0117 7.0708C13.0117 9.55518 11.0078 12.4966 7 15.895C2.99219 12.4966 0.988281 9.55518 0.988281 7.0708C0.988281 6.1333 1.15234 5.28955 1.48047 4.53955C1.80859 3.76611 2.25391 3.10986 2.81641 2.5708C3.37891 2.03174 4.01172 1.62158 4.71484 1.34033C5.44141 1.05908 6.20312 0.918457 7 0.918457ZM7 8.40674C7.42188 8.40674 7.77344 8.26611 8.05469 7.98486C8.35938 7.68018 8.51172 7.31689 8.51172 6.89502C8.51172 6.49658 8.35938 6.15674 8.05469 5.87549C7.77344 5.5708 7.42188 5.41846 7 5.41846C6.57812 5.41846 6.21484 5.5708 5.91016 5.87549C5.62891 6.15674 5.48828 6.49658 5.48828 6.89502C5.48828 7.31689 5.62891 7.68018 5.91016 7.98486C6.21484 8.26611 6.57812 8.40674 7 8.40674Z" fill="#1C1B18"/>
</svg>
