<svg width="16" height="13" viewBox="0 0 16 13" fill="none" xmlns="http://www.w3.org/2000/svg">
<path d="M14.0117 3.41846V1.90674L8 5.66846L1.98828 1.90674V3.41846L8 7.14502L14.0117 3.41846ZM14.0117 0.39502C14.4102 0.39502 14.75 0.547363 15.0312 0.852051C15.3359 1.15674 15.4883 1.5083 15.4883 1.90674V10.9067C15.4883 11.3052 15.3359 11.6567 15.0312 11.9614C14.75 12.2661 14.4102 12.4185 14.0117 12.4185H1.98828C1.58984 12.4185 1.23828 12.2661 0.933594 11.9614C0.652344 11.6567 0.511719 11.3052 0.511719 10.9067V1.90674C0.511719 1.5083 0.652344 1.15674 0.933594 0.852051C1.23828 0.547363 1.58984 0.39502 1.98828 0.39502H14.0117Z" fill="#1C1B18"/>
</svg>
