<svg width="24" height="24" viewBox="0 0 24 24" fill="none" xmlns="http://www.w3.org/2000/svg">
<rect x="0.5" y="0.5" width="23" height="23" rx="3.5" fill="#94131B"/>
<rect x="0.5" y="0.5" width="23" height="23" rx="3.5" stroke="#94131B"/>
<g clip-path="url(#clip0_61_4832)">
<path fill-rule="evenodd" clip-rule="evenodd" d="M10.6905 14.474L16.2075 7.28398C16.3707 7.07854 16.6081 6.94548 16.8685 6.91348C17.1289 6.88147 17.3915 6.9531 17.5996 7.1129C17.8076 7.27271 17.9446 7.50789 17.9809 7.76774C18.0171 8.02759 17.9498 8.29129 17.7935 8.50198L11.5735 16.609C11.4861 16.7228 11.3753 16.8166 11.2486 16.8838C11.1218 16.9511 10.9821 16.9902 10.8388 16.9987C10.6956 17.0071 10.5522 16.9846 10.4184 16.9327C10.2846 16.8809 10.1636 16.8008 10.0635 16.698L6.71348 13.258C6.62181 13.1639 6.54958 13.0527 6.5009 12.9307C6.45223 12.8086 6.42806 12.6782 6.42977 12.5469C6.43149 12.4155 6.45906 12.2858 6.51091 12.1651C6.56277 12.0444 6.63788 11.9351 6.73198 11.8435C6.82607 11.7518 6.93729 11.6796 7.0593 11.6309C7.18131 11.5822 7.31171 11.5581 7.44306 11.5598C7.57441 11.5615 7.70413 11.5891 7.82482 11.6409C7.94551 11.6928 8.05481 11.7679 8.14648 11.862L10.6905 14.474Z" fill="white"/>
</g>
<defs>
<clipPath id="clip0_61_4832">
<rect width="18" height="18" fill="white" transform="translate(3 3)"/>
</clipPath>
</defs>
</svg>
